<svg width="300" height="300" viewBox="0 0 300 300" fill="none" xmlns="http://www.w3.org/2000/svg">
<g id="Group 4">
<mask id="mask0_18_5" style="mask-type:alpha" maskUnits="userSpaceOnUse" x="0" y="0" width="300" height="300">
<circle id="Ellipse 1" cx="150" cy="150" r="150" fill="#F1FAEE"/>
</mask>
<g mask="url(#mask0_18_5)">
<rect id="Rectangle 1" width="266.404" height="256.043" transform="matrix(0.999997 0.0023045 -0.00229177 0.999997 19.263 20.7798)" fill="#F1FAEE"/>
<path id="Vector 2" d="M33.5701 250.833L21.0479 232.564L33.5701 231.026L47.1341 228.181L65.456 223.303L82.6446 217.378L99.4555 209.886L102.855 217.727L109.466 226.962L117.777 233.757L127.033 239.333L147.055 250.833L165.188 258.151L178.032 262.333L183.321 263.03L189.176 262.333L192.576 258.848L193.521 254.318L192.01 247L190.121 242.121L183.321 230.969L172.743 218.075L165.188 203.787L162.921 199.083L162.166 194.029L161.599 190.022L162.166 184.969L164.054 181.484L167.454 178.696H172.743L179.543 181.484L185.587 184.969L191.443 189.325L196.165 194.029L206.365 207.969L216.187 222.257L222.231 230.969L226.198 234.28L229.976 235.151L233.187 233.06L235.453 230.447L237.342 227.136L239.042 223.651L240.364 219.818L240.931 210.931L240.364 202.045L237.342 184.969L233.187 170.681L225.253 153.256L216.187 137.226L232.809 125.029L248.486 111.438L261.897 97.4981L274.742 81.9903L281.616 69.7436L300.266 99.7436L306.661 137.226V163.59L300.266 190.022L287.586 217.378L269.361 247L245.382 271.795L216.187 292.821L185.587 301.538L143.073 304.872L106.838 296.923L87.9218 288.718L69.2717 278.205L58.0817 270.174L47.1341 263.03L33.5701 250.833Z" fill="#612897"/>
<path id="Vector 3" d="M7.72645 204.34L20.7815 225.897L44.4234 220.141L60.6047 215.588L75.6571 210.335L90.3332 204.34L96.7304 201.404L92.4029 191.247L79.4202 181.265L61.7337 172.159L50.4444 163.754L43.4826 156.924L38.0261 147.293L34.0749 138.537L32.7578 127.679L34.0749 117.698L38.0261 107.366L46.3049 98.4349L56.089 91.6053L66.2494 86.1767L76.786 81.0983L89.2042 77.4208L100.117 75.4945L112.912 55.1809L119.309 45.8997L128.717 36.2683L138.877 31.7153L149.79 30.3143L158.445 31.7153L166.724 34.5171L173.874 39.0702L179.519 45.0242L187.421 62.5359L190.808 84.2504V110.168L200.216 118.573L212.258 128.555L227.874 116.647L242.739 103.863L256.572 89.4872L266.696 77.4359L275.222 64.359L260.302 47.6923L232.327 23.5897L194.494 4.87179L149.79 -4.10257L104.707 0.512815L69.8046 12.5641L38.0261 36.2683L20.7815 62.5359L3.19714 98.4349L-3.99646 138.537V176.923L7.72645 204.34Z" fill="#FF008E"/>
</g>
</g>
</svg>
